<svg aria-hidden="true" style="position: absolute; width: 0; height: 0; overflow: hidden;" version="1.1" xmlns="http://www.w3.org/2000/svg" xmlns:xlink="http://www.w3.org/1999/xlink">
<defs>
<symbol id="icon-facebook" viewBox="0 0 32 32">
<path d="M21.329 5.313h2.921v-5.088c-0.504-0.069-2.237-0.225-4.256-0.225-4.212 0-7.097 2.649-7.097 7.519v4.481h-4.648v5.688h4.648v14.312h5.699v-14.311h4.46l0.708-5.688h-5.169v-3.919c0.001-1.644 0.444-2.769 2.735-2.769z"></path>
</symbol>
<symbol id="icon-linkedin" viewBox="0 0 32 32">
<path d="M31.992 32v-0.001h0.008v-11.736c0-5.741-1.236-10.164-7.948-10.164-3.227 0-5.392 1.771-6.276 3.449h-0.093v-2.913h-6.364v21.364h6.627v-10.579c0-2.785 0.528-5.479 3.977-5.479 3.399 0 3.449 3.179 3.449 5.657v10.401zM0.528 10.636h6.635v21.364h-6.635zM3.843 0c-2.121 0-3.843 1.721-3.843 3.843s1.721 3.879 3.843 3.879 3.843-1.757 3.843-3.879c-0.002-2.122-1.721-3.841-3.843-3.843h-0z"></path>
</symbol>
<symbol id="icon-pinterest" viewBox="0 0 32 32">
<path d="M16 0c-8.836 0-16 7.163-16 16s7.164 16 16 16 16-7.163 16-16-7.164-16-16-16zM17.841 21.314c-1.48 0-2.872-0.8-3.349-1.709 0 0-0.796 3.157-0.963 3.767-0.594 2.154-2.339 4.309-2.475 4.485-0.095 0.123-0.304 0.084-0.325-0.079-0.037-0.274-0.483-2.992 0.042-5.208 0.262-1.113 1.762-7.469 1.762-7.469s-0.437-0.875-0.437-2.169c0-2.031 1.177-3.548 2.643-3.548 1.246 0 1.848 0.936 1.848 2.058 0 1.253-0.797 3.127-1.209 4.863-0.344 1.454 0.728 2.64 2.162 2.64 2.597 0 4.345-3.335 4.345-7.287 0-3.003-2.022-5.252-5.702-5.252-4.157 0-6.749 3.1-6.749 6.564 0 1.194 0.353 2.037 0.905 2.688 0.253 0.3 0.289 0.42 0.197 0.764-0.066 0.252-0.216 0.859-0.28 1.099-0.091 0.348-0.372 0.471-0.687 0.343-1.914-0.781-2.806-2.879-2.806-5.236 0-3.893 3.283-8.562 9.795-8.562 5.233 0 8.677 3.786 8.677 7.852 0 5.378-2.989 9.395-7.395 9.395z"></path>
</symbol>
<symbol id="icon-search" viewBox="0 0 32 32">
<path d="M28.591 27.273l-7.263-7.264c1.455-1.736 2.339-3.994 2.339-6.458 0-0.005 0-0.009 0-0.014v0.001c0-5.595-4.535-10.129-10.129-10.129s-10.129 4.535-10.129 10.129c0 5.594 4.536 10.129 10.129 10.129 2.462 0 4.716-0.879 6.471-2.339l7.263 7.264 1.319-1.319zM4.475 13.538c0-4.997 4.065-9.063 9.063-9.063 4.997 0 9.063 4.066 9.063 9.063s-4.066 9.063-9.063 9.063c-4.998 0-9.063-4.066-9.063-9.063z"></path>
</symbol>
<symbol id="icon-twitter" viewBox="0 0 32 32">
<path d="M32 6.078c-1.19 0.522-2.458 0.868-3.78 1.036 1.36-0.812 2.398-2.088 2.886-3.626-1.268 0.756-2.668 1.29-4.16 1.588-1.204-1.282-2.92-2.076-4.792-2.076-3.632 0-6.556 2.948-6.556 6.562 0 0.52 0.044 1.020 0.152 1.496-5.454-0.266-10.28-2.88-13.522-6.862-0.566 0.982-0.898 2.106-0.898 3.316 0 2.272 1.17 4.286 2.914 5.452-1.054-0.020-2.088-0.326-2.964-0.808v0.072c0 3.188 2.274 5.836 5.256 6.446-0.534 0.146-1.116 0.216-1.72 0.216-0.42 0-0.844-0.024-1.242-0.112 0.85 2.598 3.262 4.508 6.13 4.57-2.232 1.746-5.066 2.798-8.134 2.798-0.538 0-1.054-0.024-1.57-0.090 2.906 1.874 6.35 2.944 10.064 2.944 12.072 0 18.672-10 18.672-18.668 0-0.29-0.010-0.57-0.024-0.848 1.302-0.924 2.396-2.078 3.288-3.406z"></path>
</symbol>
<symbol id="icon-youtube" viewBox="0 0 32 32">
<path d="M30.366 8.502c-0.346-1.285-1.359-2.298-2.644-2.644-2.348-0.642-11.738-0.642-11.738-0.642s-9.39 0-11.738 0.618c-1.26 0.346-2.298 1.384-2.644 2.669-0.618 2.347-0.618 7.216-0.618 7.216s0 4.893 0.618 7.216c0.346 1.285 1.359 2.298 2.644 2.644 2.372 0.642 11.738 0.642 11.738 0.642s9.39 0 11.738-0.618c1.285-0.346 2.298-1.359 2.644-2.644 0.618-2.348 0.618-7.216 0.618-7.216s0.025-4.893-0.618-7.24zM12.994 20.215v-8.995l7.809 4.497z"></path>
</symbol>
<symbol id="icon-search2" viewBox="0 0 32 32">
<path fill="#5474fd" style="fill: var(--color1, #5474fd)" d="M32.018 30.344l-1.673 1.676-9.236-9.241c-0.515 0.468-1.089 0.889-1.704 1.248l-0.048 0.026c-0.56 0.335-1.216 0.657-1.898 0.925l-0.093 0.032c-0.623 0.246-1.358 0.455-2.119 0.59l-0.071 0.010c-0.681 0.123-1.465 0.195-2.266 0.198h-0.002c-0.029 0-0.063 0-0.097 0-1.794 0-3.499-0.382-5.038-1.068l0.079 0.031c-1.591-0.702-2.95-1.64-4.101-2.786l0 0c-1.144-1.146-2.072-2.509-2.716-4.022l-0.032-0.083c-0.629-1.448-0.996-3.134-0.996-4.906 0-0.023 0-0.046 0-0.069v0.004c-0-0.032-0-0.070-0-0.108 0-7.067 5.729-12.797 12.797-12.797 0.036 0 0.073 0 0.109 0l-0.006-0c0.016-0 0.036-0 0.055-0 1.777 0 3.469 0.367 5.003 1.028l-0.082-0.032c1.593 0.679 2.954 1.606 4.101 2.747l-0.001-0.001c1.146 1.153 2.084 2.513 2.753 4.020l0.034 0.086c0.654 1.461 1.035 3.166 1.035 4.961 0 0.034-0 0.067-0 0.101l0-0.005c-0.002 0.802-0.074 1.585-0.211 2.346l0.012-0.081c-0.143 0.831-0.35 1.568-0.624 2.271l0.027-0.079c-0.302 0.778-0.624 1.434-0.992 2.059l0.036-0.066c-0.39 0.661-0.811 1.234-1.283 1.76l0.009-0.010 9.237 9.235zM1.362 12.91c-0 0.027-0 0.060-0 0.092 0 1.575 0.322 3.075 0.904 4.438l-0.028-0.074c0.609 1.425 1.442 2.641 2.468 3.663l0 0c1.036 1.037 2.264 1.883 3.626 2.479l0.076 0.030c1.306 0.58 2.829 0.918 4.431 0.918 0.024 0 0.048-0 0.072-0l-0.004 0c0.025 0 0.055 0 0.084 0 1.583 0 3.087-0.338 4.444-0.945l-0.069 0.028c2.765-1.241 4.931-3.407 6.141-6.096l0.031-0.076c0.579-1.288 0.916-2.792 0.916-4.375 0-0.029-0-0.057-0-0.086l0 0.004c0-0.020 0-0.043 0-0.066 0-1.603-0.337-3.128-0.944-4.507l0.028 0.072c-0.628-1.437-1.474-2.665-2.509-3.703l0 0c-1.023-1.026-2.239-1.858-3.588-2.44l-0.075-0.029c-1.292-0.555-2.796-0.878-4.376-0.878-0.029 0-0.059 0-0.088 0l0.005-0c-0.020-0-0.043-0-0.067-0-1.599 0-3.122 0.323-4.509 0.906l0.076-0.029c-2.807 1.177-4.995 3.365-6.144 6.097l-0.028 0.075c-0.554 1.308-0.876 2.828-0.876 4.424 0 0.027 0 0.054 0 0.081l-0-0.004z"></path>
</symbol>
<symbol id="icon-select" viewBox="0 0 32 32">
<path fill="#ff6363" style="fill: var(--color2, #ff6363)" d="M16.008 0.011c8.801 0.036 15.921 7.178 15.921 15.984 0 8.828-7.156 15.984-15.984 15.984s-15.984-7.156-15.984-15.984c0-6.6 4-12.266 9.709-14.705l0.104-0.040c1.811-0.784 3.92-1.24 6.136-1.24 0.035 0 0.069 0 0.104 0l-0.005-0zM16.008 30.73c0.037 0 0.081 0.001 0.125 0.001 2.033 0 3.965-0.429 5.712-1.201l-0.090 0.036c3.562-1.475 6.336-4.248 7.777-7.715l0.035-0.094c0.736-1.696 1.164-3.672 1.164-5.747s-0.428-4.051-1.201-5.843l0.037 0.096c-1.476-3.561-4.25-6.334-7.718-7.774l-0.094-0.035c-1.696-0.736-3.671-1.164-5.746-1.164s-4.050 0.428-5.842 1.201l0.096-0.037c-3.562 1.475-6.336 4.248-7.777 7.715l-0.035 0.094c-0.736 1.696-1.164 3.672-1.164 5.747s0.428 4.051 1.201 5.843l-0.037-0.096c1.476 3.561 4.25 6.334 7.718 7.774l0.094 0.035c1.656 0.736 3.588 1.165 5.62 1.165 0.044 0 0.089-0 0.133-0.001l-0.007 0zM24.045 10.299c0.14-0.183 0.358-0.3 0.603-0.3 0.012 0 0.025 0 0.037 0.001l-0.002-0c0.002 0 0.004-0 0.006-0 0.277 0 0.528 0.115 0.707 0.299l0 0c0.141 0.19 0.226 0.43 0.226 0.689 0 0.010-0 0.019-0 0.028l0-0.001c0.001 0.011 0.001 0.023 0.001 0.036 0 0.245-0.118 0.462-0.3 0.599l-0.002 0.001-10.966 10.667c-0.051 0.101-0.147 0.172-0.261 0.187l-0.002 0c-0.101 0.023-0.218 0.037-0.338 0.037h-0c-0.008 0-0.018 0-0.028 0-0.136 0-0.269-0.014-0.397-0.040l0.013 0.002c-0.116-0.014-0.213-0.086-0.262-0.185l-0.001-0.002-4.282-4.278c-0.185-0.178-0.3-0.428-0.3-0.705 0-0.004 0-0.008 0-0.011v0.001c0.051-0.497 0.442-0.888 0.934-0.94l0.005-0c0.002-0 0.005-0 0.007-0 0.278 0 0.529 0.117 0.706 0.304l0 0 3.605 3.605 10.291-9.994z"></path>
</symbol>
<symbol id="icon-enjoy" viewBox="0 0 32 32">
<path fill="#00a2ff" style="fill: var(--color3, #00a2ff)" d="M32.169 15.514c0 0.005 0 0.011 0 0.018 0 0.335-0.056 0.658-0.158 0.958l0.006-0.021c-0.103 0.312-0.253 0.582-0.444 0.818l0.004-0.005c-0.185 0.233-0.404 0.43-0.651 0.587l-0.011 0.006c-0.232 0.139-0.501 0.263-0.783 0.358l-0.030 0.009c0.134 0.221 0.258 0.477 0.357 0.745l0.010 0.032c0.093 0.259 0.147 0.558 0.147 0.869 0 0.017-0 0.035-0 0.052l0-0.003c0 0.001 0 0.002 0 0.003 0 0.317-0.054 0.62-0.153 0.903l0.006-0.019c-0.104 0.312-0.229 0.581-0.378 0.833l0.011-0.020c-0.2 0.198-0.418 0.379-0.65 0.54l-0.016 0.011c-0.212 0.153-0.454 0.29-0.71 0.4l-0.025 0.010c0.139 0.231 0.263 0.498 0.359 0.778l0.009 0.030c0.093 0.264 0.146 0.569 0.147 0.886v0c0 0.015 0 0.032 0 0.050 0 0.313-0.054 0.614-0.153 0.893l0.006-0.019c-0.11 0.297-0.233 0.552-0.379 0.791l0.011-0.020c-0.192 0.242-0.411 0.45-0.657 0.623l-0.010 0.007c-0.229 0.165-0.504 0.281-0.802 0.329l-0.011 0.001c0.369 0.437 0.594 1.007 0.594 1.629 0 0.025-0 0.050-0.001 0.074l0-0.004c-0.003 0.375-0.084 0.729-0.227 1.050l0.007-0.017c-0.146 0.343-0.346 0.635-0.593 0.881l-0 0c-0.276 0.235-0.593 0.434-0.936 0.583l-0.024 0.010c-0.32 0.139-0.693 0.22-1.085 0.22-0.008 0-0.015-0-0.023-0h-9.737c-0.422-0.006-0.828-0.060-1.218-0.155l0.037 0.008c-0.547-0.129-1.015-0.28-1.465-0.464l0.065 0.023c-0.591-0.183-1.080-0.371-1.553-0.588l0.079 0.032c-0.493-0.22-0.986-0.43-1.474-0.624-0.593-0.247-1.17-0.493-1.737-0.74-0.353-0.184-0.765-0.314-1.2-0.366l-0.017-0.002h-6.716v-14.393l0.593-0.073h5.756c0.015 0 0.033 0 0.051 0 0.414 0 0.816-0.054 1.199-0.155l-0.033 0.007c0.439-0.129 0.82-0.33 1.151-0.593l-0.007 0.005c0.576-0.337 1.069-0.678 1.536-1.053l-0.024 0.019q0.85-0.669 2.031-1.627c1.438-1.171 2.425-2.849 2.687-4.757l0.004-0.039q0.401-2.873 0.404-3.316c0-0.001 0-0.002 0-0.002 0-0.312 0.084-0.604 0.23-0.856l-0.004 0.008c0.137-0.263 0.337-0.476 0.581-0.626l0.007-0.004c0.219-0.179 0.478-0.318 0.761-0.4l0.015-0.004c0.231-0.068 0.496-0.108 0.77-0.11h0.001c0.001 0 0.002 0 0.004 0 0.418 0 0.824 0.054 1.21 0.154l-0.033-0.007c0.439 0.122 0.814 0.354 1.106 0.665l0.001 0.001c0.361 0.375 0.64 0.832 0.806 1.339l0.007 0.025c0.189 0.609 0.297 1.309 0.297 2.034 0 0.076-0.001 0.152-0.004 0.228l0-0.011c0 0.008 0 0.019 0 0.029 0 0.836-0.067 1.657-0.195 2.457l0.012-0.088c-0.138 0.861-0.304 1.595-0.511 2.313l0.033-0.135c-0.155 0.728-0.347 1.357-0.585 1.961l0.029-0.083c-0.22 0.567-0.404 1.044-0.551 1.438h10.032c0.022-0.001 0.048-0.001 0.074-0.001 0.384 0 0.752 0.070 1.091 0.197l-0.021-0.007c0.355 0.139 0.66 0.325 0.928 0.555l-0.004-0.004c0.236 0.234 0.424 0.518 0.545 0.834l0.006 0.016c0.12 0.306 0.189 0.66 0.189 1.031 0 0.014-0 0.028-0 0.042l0-0.002zM29.362 17.062c0.008 0 0.017 0 0.027 0 0.229 0 0.449-0.040 0.653-0.115l-0.013 0.004c0.182-0.064 0.333-0.179 0.439-0.328l0.002-0.003c0.14-0.14 0.262-0.299 0.361-0.472l0.006-0.011c0.096-0.171 0.153-0.374 0.153-0.592 0-0.012-0-0.023-0-0.034l0 0.002c-0-0.407-0.171-0.774-0.445-1.033l-0.001-0.001c-0.284-0.277-0.673-0.448-1.102-0.448-0.028 0-0.055 0.001-0.083 0.002l0.004-0h-12.026l0.441-0.881q2.070-5.092 2.067-8.191c0-1.627-0.268-2.571-0.813-2.844-0.382-0.22-0.834-0.365-1.316-0.403l-0.011-0.001c-0.247 0.029-0.471 0.107-0.669 0.225l0.008-0.004c-0.25 0.091-0.429 0.319-0.446 0.591l-0 0.002c0 0.294-0.021 0.787-0.073 1.474-0.076 0.873-0.232 1.676-0.463 2.446l0.022-0.085c-0.303 1.051-0.667 1.956-1.11 2.814l0.040-0.085c-0.49 0.965-1.148 1.775-1.944 2.424l-0.013 0.011c-0.834 0.693-1.537 1.27-2.099 1.737-0.469 0.393-0.988 0.771-1.532 1.11l-0.058 0.034c-0.424 0.262-0.912 0.487-1.428 0.649l-0.046 0.012c-0.457 0.14-0.981 0.22-1.525 0.22-0.008 0-0.016-0-0.024-0h-5.094v11.958h5.462c0.5 0.032 0.964 0.151 1.39 0.341l-0.026-0.010c0.567 0.22 1.265 0.504 2.104 0.85 0.394 0.194 0.824 0.404 1.291 0.624 0.356 0.175 0.807 0.363 1.269 0.527l0.095 0.029c0.493 0.147 0.934 0.283 1.328 0.404 0.307 0.106 0.66 0.172 1.028 0.183l0.006 0h9.738c0.008 0 0.017 0 0.027 0 0.233 0 0.453-0.054 0.648-0.151l-0.009 0.004c0.198-0.1 0.367-0.223 0.514-0.368l-0 0c0.156-0.107 0.274-0.26 0.334-0.44l0.002-0.006c0.069-0.174 0.109-0.376 0.11-0.587v-0c0-0.013 0.001-0.028 0.001-0.043 0-0.211-0.041-0.413-0.115-0.598l0.004 0.011c-0.17-0.37-0.47-0.656-0.84-0.804l-0.010-0.004c-0.188-0.073-0.406-0.116-0.634-0.116-0.011 0-0.023 0-0.034 0l0.002-0h-0.147v-1.254h1.7c0.212-0.001 0.413-0.041 0.599-0.114l-0.011 0.004c0.203-0.075 0.377-0.188 0.519-0.331v0c0.094-0.147 0.194-0.32 0.294-0.514 0.091-0.172 0.146-0.376 0.147-0.592v-0c-0.001-0.215-0.056-0.417-0.15-0.595l0.003 0.007c-0.103-0.207-0.201-0.377-0.307-0.541l0.013 0.022c-0.146-0.097-0.316-0.195-0.492-0.282l-0.027-0.012c-0.17-0.091-0.373-0.145-0.587-0.147h-0.52v-1.254h1.847c0.212-0.001 0.413-0.041 0.599-0.114l-0.011 0.004c0.203-0.077 0.377-0.191 0.519-0.336l0-0c0.145-0.147 0.267-0.317 0.362-0.503l0.005-0.012c0.092-0.172 0.146-0.376 0.147-0.593v-0c0-0.008 0-0.017 0-0.027 0-0.231-0.054-0.449-0.151-0.643l0.004 0.008c-0.085-0.181-0.21-0.332-0.364-0.444l-0.003-0.002c-0.148-0.146-0.32-0.269-0.508-0.362l-0.012-0.005c-0.17-0.091-0.373-0.145-0.587-0.147h-0.593v-1.254h2.141z"></path>
</symbol>
<symbol id="icon-Composite-Path4" viewBox="0 0 39 32">
<path d="M0 0v4.571h38.857v-4.571h-38.857zM0 18.286h38.857v-4.571h-38.857v4.571zM0 32h38.857v-4.571h-38.857v4.571z"></path>
</symbol>
<symbol id="icon-cross" viewBox="0 0 32 32">
<path d="M31.708 25.708c-0-0-0-0-0-0l-9.708-9.708 9.708-9.708c0-0 0-0 0-0 0.105-0.105 0.18-0.227 0.229-0.357 0.133-0.356 0.057-0.771-0.229-1.057l-4.586-4.586c-0.286-0.286-0.702-0.361-1.057-0.229-0.13 0.048-0.252 0.124-0.357 0.228 0 0-0 0-0 0l-9.708 9.708-9.708-9.708c-0-0-0-0-0-0-0.105-0.104-0.227-0.18-0.357-0.228-0.356-0.133-0.771-0.057-1.057 0.229l-4.586 4.586c-0.286 0.286-0.361 0.702-0.229 1.057 0.049 0.13 0.124 0.252 0.229 0.357 0 0 0 0 0 0l9.708 9.708-9.708 9.708c-0 0-0 0-0 0-0.104 0.105-0.18 0.227-0.229 0.357-0.133 0.355-0.057 0.771 0.229 1.057l4.586 4.586c0.286 0.286 0.702 0.361 1.057 0.229 0.13-0.049 0.252-0.124 0.357-0.229 0-0 0-0 0-0l9.708-9.708 9.708 9.708c0 0 0 0 0 0 0.105 0.105 0.227 0.18 0.357 0.229 0.356 0.133 0.771 0.057 1.057-0.229l4.586-4.586c0.286-0.286 0.362-0.702 0.229-1.057-0.049-0.13-0.124-0.252-0.229-0.357z"></path>
</symbol>
</defs>
</svg>
