<svg aria-hidden="true" style="position: absolute; width: 0; height: 0; overflow: hidden;" version="1.1" xmlns="http://www.w3.org/2000/svg" xmlns:xlink="http://www.w3.org/1999/xlink">
<defs>
<symbol id="icon-Dribble" viewBox="0 0 32 32">
<path fill="#fff" style="fill: var(--color1, #fff)" d="M30.841 9.765c-0.432-1.041-0.925-1.936-1.504-2.767l0.031 0.047c-0.6-0.886-1.241-1.66-1.949-2.368l0 0c-0.714-0.701-1.491-1.343-2.321-1.913l-0.058-0.038c-0.788-0.536-1.689-1.031-2.637-1.437l-0.105-0.040c-0.858-0.376-1.867-0.697-2.914-0.912l-0.1-0.017c-0.966-0.209-2.076-0.329-3.214-0.329-0.009 0-0.019 0-0.028 0h0.001c-0.013-0-0.028-0-0.043-0-1.124 0-2.221 0.12-3.277 0.347l0.102-0.018c-1.158 0.236-2.175 0.557-3.142 0.969l0.106-0.040c-1.044 0.446-1.938 0.941-2.774 1.513l0.055-0.035c-0.888 0.608-1.666 1.25-2.382 1.954l0.002-0.002c-1.418 1.429-2.578 3.117-3.403 4.986l-0.042 0.106c-0.376 0.857-0.697 1.864-0.912 2.909l-0.017 0.1c-0.216 0.968-0.34 2.080-0.34 3.221s0.124 2.253 0.359 3.323l-0.019-0.102c0.234 1.147 0.555 2.155 0.968 3.113l-0.039-0.102c0.452 1.043 0.952 1.937 1.53 2.772l-0.035-0.053c0.598 0.887 1.239 1.661 1.948 2.368l0 0c0.712 0.705 1.489 1.345 2.322 1.91l0.057 0.036c0.782 0.539 1.676 1.035 2.617 1.443l0.102 0.039c1.847 0.794 3.996 1.256 6.254 1.258h0c1.148-0.001 2.267-0.119 3.348-0.343l-0.107 0.018c1.147-0.234 2.156-0.556 3.114-0.972l-0.1 0.039c1.053-0.447 1.954-0.943 2.798-1.518l-0.056 0.036c0.89-0.601 1.668-1.242 2.381-1.948l-0.001 0.001c0.709-0.707 1.351-1.481 1.914-2.313l0.035-0.055c1.112-1.636 1.953-3.555 2.405-5.62l0.020-0.109c0.202-0.968 0.317-2.081 0.317-3.221s-0.116-2.253-0.335-3.328l0.018 0.106c-0.227-1.142-0.556-2.152-0.988-3.105l0.036 0.089zM16.044 2.323c0.013-0 0.028-0 0.043-0 3.466 0 6.631 1.294 9.036 3.425l-0.014-0.012c-1.819 2.284-4.255 4.005-7.055 4.919l-0.105 0.030c-1.693-3.069-3.389-5.676-5.248-8.153l0.127 0.176c0.966-0.244 2.075-0.384 3.217-0.385h0.001zM12.758 2.722h-0.045c0.007 0.002 0.015 0.004 0.023 0.004s0.016-0.001 0.023-0.004l-0.001 0zM10.197 3.628c1.663 2.242 3.349 4.812 4.889 7.478l0.21 0.395c-3.795 1.038-8.155 1.645-12.654 1.668l-0.013 0c0.924-4.254 3.732-7.709 7.486-9.498l0.082-0.035zM5.846 25.115c-2.178-2.39-3.513-5.582-3.513-9.086 0-0.016 0-0.033 0-0.049v0.002-0.421c0.058 0 0.127 0 0.197 0 4.95 0 9.735-0.711 14.256-2.037l-0.358 0.090c0.385 0.764 0.77 1.543 1.11 2.323l-0.544 0.159c-4.713 1.717-8.558 4.876-11.096 8.935l-0.053 0.091zM7.614 26.767s-0.113-0.1-0.295-0.24c0.091 0.079 0.204 0.136 0.317 0.227zM16.044 29.657c-3.187-0.003-6.117-1.099-8.436-2.934l0.029 0.022c2.36-4.073 6.122-7.112 10.611-8.486l0.131-0.034c0.034-0.005 0.065-0.016 0.092-0.032l-0.001 0.001c1.198 2.948 2.218 6.429 2.892 10.033l0.054 0.346c-1.584 0.691-3.429 1.092-5.368 1.092-0.001 0-0.002 0-0.003 0h0zM23.726 27.323c-0.702-3.75-1.627-7.026-2.81-10.176l0.136 0.413c0.878-0.138 1.891-0.217 2.922-0.217 2.004 0 3.938 0.298 5.761 0.852l-0.14-0.037c-0.633 3.841-2.792 7.083-5.821 9.14l-0.048 0.031zM20.213 15.405c-0.091-0.227-0.204-0.469-0.295-0.709-0.295-0.68-0.589-1.33-0.906-1.983 3.073-1.129 5.651-2.99 7.612-5.376l0.024-0.031c1.915 2.303 3.090 5.281 3.127 8.533l0 0.008c-1.873-0.387-4.025-0.608-6.228-0.608-1.175 0-2.334 0.063-3.476 0.186l0.142-0.012z"></path>
</symbol>
<symbol id="icon-Facebook" viewBox="0 0 15 32">
<path fill="#fff" style="fill: var(--color1, #fff)" d="M3.201 31.982h6.674v-15.99h4.499l0.585-5.664h-5.084v-3.323c-0.007-0.053-0.011-0.114-0.011-0.176 0-0.751 0.609-1.359 1.359-1.359 0.024 0 0.048 0.001 0.071 0.002l-0.003-0h3.584v-5.487l-4.941-0.018c-0.151-0.013-0.328-0.021-0.506-0.021-3.45 0-6.246 2.796-6.246 6.246 0 0.17 0.007 0.338 0.020 0.505l-0.001-0.022v3.654h-3.172v5.664h3.172v15.99z"></path>
</symbol>
<symbol id="icon-Google" viewBox="0 0 32 32">
<path fill="#fff" style="fill: var(--color1, #fff)" d="M20.444 0.011h-9.468c-4.803 0-8.814 3.528-8.814 7.413-0.005 0.102-0.009 0.221-0.009 0.341 0 3.754 3.043 6.797 6.797 6.797 0.13 0 0.259-0.004 0.387-0.011l-0.018 0.001c0.308 0 0.614-0.014 0.906-0.034-0.3 0.529-0.485 1.159-0.503 1.83l-0 0.005c0.067 1.016 0.583 1.898 1.35 2.459l0.009 0.007c-0.569 0-1.119 0.014-1.717 0.014-5.501 0-9.355 3.77-9.355 7.393 0 3.564 4.645 5.793 10.146 5.793 6.272 0 10.126-3.544 10.126-7.112 0-2.857-0.619-4.305-3.677-6.571-1.201-0.677-2.154-1.671-2.764-2.868l-0.018-0.039c0.052-1.252 0.808-2.316 1.881-2.81l0.020-0.008c1.629-1.126 2.706-2.951 2.793-5.033l0-0.013c0.007-0.106 0.011-0.23 0.011-0.355 0-2.075-1.064-3.901-2.675-4.962l-0.022-0.014h2.51zM17.233 24.298c0.076 0.304 0.119 0.653 0.12 1.012v0c0 2.882-1.862 5.13-7.207 5.13-3.804 0-6.55-2.395-6.55-5.275 0-2.823 3.222-5.263 7.024-5.211 0.882 0.006 1.728 0.15 2.521 0.411l-0.058-0.017c2.069 1.423 3.732 2.316 4.151 3.949zM11.143 13.114c-2.942-0.373-5.222-2.767-5.414-5.73l-0.001-0.018c-0.453-3.34 1.269-5.891 3.82-5.823s4.735 2.819 5.175 6.16-1.029 5.488-3.58 5.411zM27.753 4.801v-4.355h-2.184v4.355h-4.364v2.173h4.364v4.352h2.184v-4.352h4.373v-2.173h-4.373z"></path>
</symbol>
<symbol id="icon-Logo" viewBox="0 0 100 32">
<path fill="#fff" style="fill: var(--color1, #fff)" d="M20.444 0.011h-9.468c-4.803 0-8.814 3.528-8.814 7.413-0.005 0.102-0.009 0.221-0.009 0.341 0 3.754 3.043 6.797 6.797 6.797 0.13 0 0.259-0.004 0.387-0.011l-0.018 0.001c0.308 0 0.614-0.014 0.906-0.034-0.3 0.529-0.485 1.159-0.503 1.83l-0 0.005c0.067 1.016 0.583 1.898 1.35 2.459l0.009 0.007c-0.569 0-1.119 0.014-1.717 0.014-5.501 0-9.355 3.77-9.355 7.393 0 3.564 4.645 5.793 10.146 5.793 6.272 0 10.126-3.544 10.126-7.112 0-2.857-0.619-4.305-3.677-6.571-1.201-0.677-2.154-1.671-2.764-2.868l-0.018-0.039c0.052-1.252 0.808-2.316 1.881-2.81l0.020-0.008c1.629-1.126 2.706-2.951 2.793-5.033l0-0.013c0.007-0.106 0.011-0.23 0.011-0.355 0-2.075-1.064-3.901-2.675-4.962l-0.022-0.014h2.51zM17.233 24.298c0.076 0.304 0.119 0.653 0.12 1.012v0c0 2.882-1.862 5.13-7.207 5.13-3.804 0-6.55-2.395-6.55-5.275 0-2.823 3.222-5.263 7.024-5.211 0.882 0.006 1.728 0.15 2.521 0.411l-0.058-0.017c2.069 1.423 3.732 2.316 4.151 3.949zM11.143 13.114c-2.942-0.373-5.222-2.767-5.414-5.73l-0.001-0.018c-0.453-3.34 1.269-5.891 3.82-5.823s4.735 2.819 5.175 6.16-1.029 5.488-3.58 5.411zM27.753 4.801v-4.355h-2.184v4.355h-4.364v2.173h4.364v4.352h2.184v-4.352h4.373v-2.173h-4.373z"></path>
</symbol>
<symbol id="icon-Tweter" viewBox="0 0 40 32">
<path fill="#fff" style="fill: var(--color1, #fff)" d="M-0.031 28.373c3.521 2.28 7.826 3.635 12.447 3.635 12.741 0 23.075-10.303 23.127-23.031l0-0.005c0-0.346 0-0.698-0.028-1.045 1.6-1.156 2.946-2.545 4.022-4.132l0.037-0.058c-1.36 0.621-2.937 1.070-4.592 1.266l-0.075 0.007c1.678-1.009 2.941-2.563 3.556-4.412l0.017-0.057c-1.486 0.889-3.216 1.567-5.057 1.938l-0.105 0.018c-1.487-1.575-3.588-2.555-5.919-2.555-4.478 0-8.111 3.619-8.134 8.091v0.002c0 0.004 0 0.008 0 0.012 0 0.649 0.075 1.281 0.218 1.887l-0.011-0.056c-6.768-0.342-12.724-3.546-16.727-8.418l-0.032-0.040c-0.688 1.166-1.095 2.568-1.095 4.066 0 2.8 1.42 5.267 3.58 6.722l0.029 0.018c-1.358-0.039-2.622-0.408-3.725-1.029l0.040 0.021v0.098c0.003 3.912 2.778 7.174 6.467 7.929l0.052 0.009c-0.626 0.177-1.345 0.279-2.089 0.279-0.018 0-0.036-0-0.054-0h0.003c-0.54-0-1.069-0.052-1.58-0.151l0.052 0.008c1.073 3.246 4.053 5.558 7.582 5.62l0.007 0c-2.77 2.162-6.3 3.467-10.136 3.467-0.662 0-1.314-0.039-1.955-0.114l0.078 0.007z"></path>
</symbol>
</defs>
</svg>
