<svg aria-hidden="true" style="position:absolute;width:0;height:0" xmlns="http://www.w3.org/2000/svg" overflow="hidden"><defs><symbol id="icon-Anchor" viewBox="0 0 32 32"><path d="M15.957 32.002h.001c6.634 0 12.108-4.969 12.91-11.451v.005a.996.996 0 10-1.978-.24l-.006.054c-.679 5.43-5.312 9.631-10.926 9.631-5.62 0-10.257-4.21-10.933-9.702v-.005a.997.997 0 00-1.978.238l.006.063c.785 6.429 6.262 11.408 12.903 11.408h.003zm0-.254a.996.996 0 01-.996-.996V8.277a.996.996 0 011.992 0v22.475c0 .55-.446.996-.996.996zm.016-29.756a2.024 2.024 0 11-2.025 2.024 2.026 2.026 0 012.024-2.024zm0-1.993h-.001a4.016 4.016 0 104.016 4.016A4.015 4.015 0 0015.973 0zm12.136 19.537l-3.935 2.677a.696.696 0 01-.999-.142l-.001-.002-.204-.225a.767.767 0 01.246-1.021l.003-.002 4.532-3.061c.006-.004.009-.01.015-.013l.307-.199a.698.698 0 01.982.234l.002.003.183.315c.003.006 0 .013.006.019l2.561 4.71a.77.77 0 01-.246 1.023l-.003.002-.284.107a.696.696 0 01-.955-.324l-.002-.004zM1.601 23.631l-.002.004a.697.697 0 01-.955.324l-.284-.107-.003-.002a.768.768 0 01-.246-1.023l2.561-4.71c.003-.006.003-.013.006-.019l.183-.315.002-.003a.697.697 0 01.982-.234l.307.199c.006.003.009.009.015.013l4.535 3.062a.768.768 0 01.246 1.021l-.204.225-.001.002a.696.696 0 01-.999.142l-3.935-2.677zM10.976 8a.996.996 0 000 1.992h9.961a.996.996 0 000-1.992h-9.961z"/></symbol><symbol id="icon-Diamond" viewBox="0 0 32 32"><path d="M25.761 2.004l4.155 7.944-14.051 19.13L2.038 9.803l4.147-7.799H25.76zm.208-1.999H5.984A1.838 1.838 0 004.52.879l-.005.008-4.356 8.19a1.736 1.736 0 00-.164.744c0 .353.103.682.282.957l-.004-.007 14.989 20.896a.683.683 0 001.172.01l.002-.003 15.236-20.743c.179-.271.286-.604.286-.961 0-.264-.058-.515-.163-.74l.005.011L27.432.89a1.822 1.822 0 00-1.458-.885h-.005zm4.122 10.992H1.112V8.998h28.979v1.999zM14.902 29.799L5.534 1.57 7.433.939l9.368 28.229zm1.969-.212l-1.888-.66L25.026.175l1.887.66zm-6.404-19.018L8.828 9.427 15.09.434c.178-.253.465-.419.792-.429h.001c.328.001.621.15.814.385l.001.002 6.729 8.663-1.579 1.226-5.896-7.59z"/></symbol><symbol id="icon-Eyeglasses" viewBox="0 0 43 32"><path d="M1.336 23.169c-.031 0-.067 0-.096-.004a1.334 1.334 0 01-1.234-1.429v.004c.041-.577 2.075-13.221 2.415-15.259.033-.195.059-.404.087-.623.262-2.048.751-5.859 6.895-5.859a1.333 1.333 0 010 2.666c-3.8 0-4 1.559-4.25 3.533-.033.253-.067.495-.102.72-.267 1.591-2.108 11.117-2.387 15.012a1.334 1.334 0 01-1.328 1.237zm40.12.084h-.013a1.468 1.468 0 01-1.448-1.23l-.001-.008C39.715 18.12 37.872 8.51 37.607 6.92c-.037-.225-.067-.467-.101-.72-.253-1.974-.453-3.533-4.25-3.533a1.333 1.333 0 010-2.666c6.143 0 6.633 3.811 6.895 5.859.029.219.055.427.087.623.339 2.037 2.507 14.765 2.548 15.343a1.334 1.334 0 01-1.231 1.424h-.004a.885.885 0 01-.093.005h-.003zm-32.004-7.2a6.64 6.64 0 010 13.278l-.133.001a6.64 6.64 0 11.14-13.281h-.007zm0-2.667l-.158-.001a9.307 9.307 0 000 18.614l.166-.001h-.008c5.14 0 9.306-4.166 9.306-9.306s-4.166-9.306-9.306-9.306zm24 2.667a6.64 6.64 0 010 13.278l-.133.001a6.64 6.64 0 11.14-13.281h-.007zm0-2.667l-.158-.001a9.307 9.307 0 000 18.614l.166-.001h-.008c5.14 0 9.306-4.166 9.306-9.306s-4.166-9.306-9.306-9.306zm-15.474 7.292l-1.453-2.236a9.064 9.064 0 014.875-1.179l-.017-.001a10.17 10.17 0 014.839 1.067l-.059-.027-1.31 2.323a7.83 7.83 0 00-3.481-.696h.011a6.89 6.89 0 00-3.445.768l.039-.018z"/></symbol><symbol id="icon-Monitor" viewBox="0 0 39 32"><path d="M36.901 2.469v20.917H2.46V2.469h34.441zm0-2.46H2.46A2.468 2.468 0 000 2.469v20.918a2.467 2.467 0 002.46 2.46h34.441a2.467 2.467 0 002.46-2.46V2.469a2.467 2.467 0 00-2.46-2.46zm-15.99 24.616v4.92h6.15a1.23 1.23 0 010 2.46h-14.76a1.23 1.23 0 010-2.46h6.15v-4.92h2.46z"/></symbol></defs></svg>