<svg aria-hidden="true" style="position: absolute; width: 0; height: 0; overflow: hidden;" version="1.1" xmlns="http://www.w3.org/2000/svg" xmlns:xlink="http://www.w3.org/1999/xlink">
<defs>
<symbol id="icon-plus" viewBox="0 0 32 32">
<path fill="none" stroke="#fff" style="stroke: var(--color1, #fff)" stroke-linejoin="miter" stroke-linecap="butt" stroke-miterlimit="4" stroke-width="0.3951" d="M31.802 16c0 8.727-7.075 15.802-15.802 15.802s-15.802-7.075-15.802-15.802c0-8.727 7.075-15.802 15.802-15.802s15.802 7.075 15.802 15.802z"></path>
<path fill="none" stroke="#fff" style="stroke: var(--color1, #fff)" stroke-linejoin="miter" stroke-linecap="butt" stroke-miterlimit="4" stroke-width="0.3951" d="M11.654 16h9.086v0.395h-9.086v-0.395zM16 11.654h0.395v9.086h-0.395v-9.086z"></path>
</symbol>
<symbol id="icon-call" viewBox="0 0 32 32">
<path fill="#7e5aff" style="fill: var(--color2, #7e5aff)" d="M31.378 25.445l-6.701-4.467c-0.609-0.405-1.427-0.272-1.876 0.305l-1.951 2.509c-0.419 0.544-1.173 0.701-1.774 0.368-1.324-0.737-2.89-1.43-6.345-4.889s-4.153-5.021-4.889-6.345c-0.333-0.601-0.176-1.355 0.368-1.774l2.509-1.951c0.577-0.449 0.71-1.267 0.305-1.876l-4.467-6.701c-0.414-0.62-1.241-0.807-1.881-0.423l-2.802 1.681c-0.749 0.447-1.304 1.151-1.549 1.988l-0.006 0.024c-0.766 2.794-0.921 8.957 8.957 18.835s16.040 9.722 18.834 8.956c0.861-0.251 1.565-0.806 2.003-1.539l0.009-0.016 1.681-2.802c0.384-0.639 0.197-1.467-0.423-1.881zM18.207 4.965c5.178 0.006 9.373 4.202 9.379 9.379 0 0.305 0.247 0.552 0.552 0.552s0.552-0.247 0.552-0.552v0c-0.006-5.787-4.696-10.476-10.483-10.483-0.305 0-0.552 0.247-0.552 0.552v0c0 0 0 0 0 0 0 0.305 0.247 0.552 0.552 0.552 0 0 0 0 0 0v0z"></path>
<path fill="#7e5aff" style="fill: var(--color2, #7e5aff)" d="M18.207 8.276c3.35 0.004 6.065 2.719 6.069 6.069 0 0.305 0.247 0.552 0.552 0.552s0.552-0.247 0.552-0.552v0c-0.005-3.959-3.213-7.168-7.172-7.172-0.305 0-0.552 0.247-0.552 0.552s0.247 0.552 0.552 0.552v0z"></path>
<path fill="#7e5aff" style="fill: var(--color2, #7e5aff)" d="M18.207 11.586c1.523 0.002 2.757 1.236 2.759 2.759 0 0.305 0.247 0.552 0.552 0.552s0.552-0.247 0.552-0.552v0c-0.002-2.132-1.73-3.86-3.862-3.862-0.305 0-0.552 0.247-0.552 0.552v0c0 0 0 0 0 0 0 0.305 0.247 0.552 0.552 0.552 0 0 0 0 0 0v0z"></path>
</symbol>
<symbol id="icon-clock" viewBox="0 0 32 32">
<path fill="#7e5aff" style="fill: var(--color2, #7e5aff)" d="M16 0c-8.836 0-16 7.164-16 16s7.164 16 16 16 16-7.164 16-16-7.164-16-16-16zM16 29.333c-7.364 0-13.333-5.97-13.333-13.333s5.97-13.333 13.333-13.333 13.333 5.97 13.333 13.333-5.97 13.333-13.333 13.333z"></path>
<path fill="#7e5aff" style="fill: var(--color2, #7e5aff)" d="M16 5.333c-0.736 0-1.333 0.597-1.333 1.333v8h-4c-0.736 0-1.333 0.597-1.333 1.333s0.597 1.333 1.333 1.333h5.333c0.736 0 1.333-0.597 1.333-1.333v-9.333c0-0.736-0.597-1.333-1.333-1.333z"></path>
</symbol>
<symbol id="icon-cross" viewBox="0 0 32 32">
<path fill="#fff" style="fill: var(--color1, #fff)" d="M20.953 16l10.851-10.852c0.121-0.121 0.195-0.287 0.195-0.472s-0.075-0.351-0.195-0.472l-4.009-4.010c-0.121-0.121-0.288-0.195-0.472-0.195s-0.351 0.075-0.472 0.195v0l-10.852 10.852-10.852-10.852c-0.25-0.25-0.693-0.25-0.943 0l-4.009 4.010c-0.121 0.121-0.195 0.287-0.195 0.472s0.075 0.351 0.195 0.472l10.852 10.852-10.852 10.852c-0.121 0.121-0.195 0.287-0.195 0.472s0.075 0.351 0.195 0.472l4.009 4.010c0.121 0.121 0.287 0.195 0.472 0.195s0.351-0.075 0.472-0.195l10.852-10.852 10.852 10.852c0.121 0.121 0.287 0.195 0.472 0.195s0.351-0.075 0.472-0.195l4.009-4.010c0.121-0.121 0.195-0.287 0.195-0.472s-0.075-0.351-0.195-0.472l-10.852-10.852z"></path>
</symbol>
<symbol id="icon-down-arrow" viewBox="0 0 32 32">
<path fill="#fff" style="fill: var(--color1, #fff)" d="M28.227 6.113l-12.227 12.227-12.227-12.227-3.773 3.773 16 16 16-16z"></path>
</symbol>
<symbol id="icon-facebook" viewBox="0 0 32 32">
<path fill="#fff" style="fill: var(--color1, #fff)" d="M25.595 6.376h3.506v-6.106c-0.605-0.083-2.685-0.27-5.107-0.27-5.054 0-8.517 3.179-8.517 9.022v5.378h-5.578v6.826h5.578v17.174h6.838v-17.173h5.352l0.85-6.826h-6.203v-4.702c0.002-1.973 0.533-3.323 3.282-3.323z"></path>
</symbol>
<symbol id="icon-instagram" viewBox="0 0 32 32">
<path fill="#fff" style="fill: var(--color1, #fff)" d="M31.969 9.408c-0.075-1.7-0.35-2.869-0.744-3.882-0.406-1.075-1.031-2.038-1.85-2.838-0.8-0.813-1.769-1.444-2.832-1.844-1.019-0.394-2.182-0.669-3.882-0.744-1.713-0.081-2.257-0.1-6.601-0.1s-4.888 0.019-6.595 0.094c-1.7 0.075-2.869 0.35-3.882 0.744-1.075 0.406-2.038 1.031-2.838 1.851-0.813 0.8-1.444 1.769-1.844 2.832-0.394 1.019-0.669 2.182-0.744 3.882-0.081 1.713-0.1 2.257-0.1 6.601s0.019 4.888 0.094 6.595c0.075 1.7 0.35 2.869 0.744 3.882 0.406 1.075 1.038 2.038 1.85 2.838 0.8 0.813 1.769 1.444 2.832 1.844 1.019 0.394 2.182 0.669 3.882 0.744 1.706 0.075 2.25 0.094 6.595 0.094s4.888-0.018 6.595-0.094c1.7-0.075 2.869-0.35 3.882-0.744 2.157-0.85 3.832-2.525 4.663-4.627l0.019-0.055c0.394-1.019 0.669-2.182 0.744-3.882 0.075-1.707 0.094-2.25 0.094-6.595s-0.006-4.888-0.081-6.595zM29.087 22.473c-0.069 1.563-0.331 2.407-0.55 2.969-0.538 1.394-1.644 2.5-3.038 3.038-0.563 0.219-1.413 0.481-2.969 0.55-1.688 0.075-2.194 0.094-6.464 0.094s-4.782-0.018-6.464-0.094c-1.563-0.069-2.407-0.331-2.969-0.55-0.694-0.256-1.325-0.663-1.838-1.194-0.531-0.519-0.938-1.144-1.194-1.838-0.219-0.563-0.481-1.413-0.55-2.969-0.075-1.688-0.094-2.194-0.094-6.464s0.018-4.782 0.094-6.464c0.069-1.563 0.331-2.407 0.55-2.969 0.256-0.694 0.663-1.325 1.2-1.838 0.519-0.531 1.144-0.938 1.838-1.194 0.563-0.219 1.413-0.481 2.969-0.55 1.688-0.075 2.194-0.094 6.464-0.094 4.276 0 4.782 0.019 6.464 0.094 1.563 0.069 2.407 0.331 2.969 0.55 0.694 0.256 1.325 0.662 1.838 1.194 0.531 0.519 0.938 1.144 1.194 1.838 0.219 0.563 0.481 1.413 0.55 2.969 0.075 1.688 0.094 2.194 0.094 6.464s-0.019 4.77-0.094 6.458z"></path>
<path fill="#fff" style="fill: var(--color1, #fff)" d="M16.059 7.783c-4.538 0-8.22 3.682-8.22 8.22s3.682 8.22 8.22 8.22c4.538 0 8.22-3.682 8.22-8.22s-3.682-8.22-8.22-8.22zM16.059 21.335c-2.944 0-5.332-2.388-5.332-5.332s2.388-5.332 5.332-5.332c2.944 0 5.332 2.388 5.332 5.332s-2.388 5.332-5.332 5.332zM26.524 7.458c0 1.060-0.859 1.919-1.919 1.919s-1.919-0.859-1.919-1.919c0-1.060 0.859-1.919 1.919-1.919s1.919 0.859 1.919 1.919z"></path>
</symbol>
<symbol id="icon-left-arrow" viewBox="0 0 32 32">
<path d="M25.887 3.773l-3.773-3.773-16 16 16 16 3.773-3.773-12.227-12.227z"></path>
</symbol>
<symbol id="icon-menu" viewBox="0 0 32 32">
<path fill="#fff" style="fill: var(--color1, #fff)" d="M0 23.111h32v3.556h-32zM0 14.222h32v3.556h-32zM0 5.333h32v3.556h-32z"></path>
</symbol>
<symbol id="icon-open-email" viewBox="0 0 32 32">
<path fill="#7e5aff" style="fill: var(--color2, #7e5aff)" d="M26 8.451v-3.139c0-2.929-2.383-5.313-5.313-5.313h-14.688v8.451l-6 3.983v19.565h32v-19.565zM30.125 13.44v0.869l-4.125 2.739v-6.346zM24.11 5h-2.985v-3.096c1.588 0.203 2.84 1.492 2.985 3.096zM19.25 1.875v5h4.875v11.418l-4.359 2.894-2.21-1.467c-0.437-0.295-0.976-0.471-1.556-0.471s-1.118 0.176-1.566 0.477l0.010-0.006-2.21 1.467-4.359-2.894v-16.418zM6 10.702v6.346l-4.125-2.739v-0.869zM1.875 16.56l8.664 5.752-8.664 5.752zM2.162 30.125l13.32-8.843c0.146-0.098 0.325-0.157 0.519-0.157s0.373 0.059 0.522 0.159l-0.003-0.002 13.32 8.843zM21.461 22.313l8.664-5.752v11.505z"></path>
</symbol>
<symbol id="icon-pin-violet" viewBox="0 0 32 32">
<path fill="#7e5aff" style="fill: var(--color2, #7e5aff)" d="M16 0c-5.881 0-10.667 4.785-10.667 10.667 0 1.766 0.441 3.516 1.281 5.069l8.803 15.921c0.117 0.212 0.341 0.344 0.583 0.344s0.466-0.131 0.583-0.344l8.806-15.926c0.836-1.547 1.277-3.298 1.277-5.064 0-5.881-4.785-10.667-10.667-10.667zM16 16c-2.941 0-5.333-2.393-5.333-5.333s2.393-5.333 5.333-5.333 5.333 2.393 5.333 5.333-2.393 5.333-5.333 5.333z"></path>
</symbol>
<symbol id="icon-pin" viewBox="0 0 32 32">
<path d="M16 0c-5.881 0-10.667 4.785-10.667 10.667 0 1.766 0.441 3.516 1.281 5.069l8.803 15.921c0.117 0.212 0.341 0.344 0.583 0.344s0.466-0.131 0.583-0.344l8.806-15.926c0.836-1.547 1.277-3.298 1.277-5.064 0-5.881-4.785-10.667-10.667-10.667zM16 16c-2.941 0-5.333-2.393-5.333-5.333s2.393-5.333 5.333-5.333 5.333 2.393 5.333 5.333-2.393 5.333-5.333 5.333z"></path>
</symbol>
<symbol id="icon-plus1" viewBox="0 0 32 32">
<path fill="none" stroke="#fff" style="stroke: var(--color1, #fff)" stroke-linejoin="miter" stroke-linecap="butt" stroke-miterlimit="4" stroke-width="0.3951" d="M31.802 16c0 8.727-7.075 15.802-15.802 15.802s-15.802-7.075-15.802-15.802c0-8.727 7.075-15.802 15.802-15.802s15.802 7.075 15.802 15.802z"></path>
<path fill="none" stroke="#fff" style="stroke: var(--color1, #fff)" stroke-linejoin="miter" stroke-linecap="butt" stroke-miterlimit="4" stroke-width="0.3951" d="M11.654 16h9.086v0.395h-9.086v-0.395zM16 11.654h0.395v9.086h-0.395v-9.086z"></path>
</symbol>
<symbol id="icon-twitter" viewBox="0 0 32 32">
<path fill="#fff" style="fill: var(--color1, #fff)" d="M32 6.078c-1.19 0.522-2.458 0.868-3.78 1.036 1.36-0.812 2.398-2.088 2.886-3.626-1.268 0.756-2.668 1.29-4.16 1.588-1.204-1.282-2.92-2.076-4.792-2.076-3.632 0-6.556 2.948-6.556 6.562 0 0.52 0.044 1.020 0.152 1.496-5.454-0.266-10.28-2.88-13.522-6.862-0.566 0.982-0.898 2.106-0.898 3.316 0 2.272 1.17 4.286 2.914 5.452-1.054-0.020-2.088-0.326-2.964-0.808v0.072c0 3.188 2.274 5.836 5.256 6.446-0.534 0.146-1.116 0.216-1.72 0.216-0.42 0-0.844-0.024-1.242-0.112 0.85 2.598 3.262 4.508 6.13 4.57-2.232 1.746-5.066 2.798-8.134 2.798-0.538 0-1.054-0.024-1.57-0.090 2.906 1.874 6.35 2.944 10.064 2.944 12.072 0 18.672-10 18.672-18.668 0-0.29-0.010-0.57-0.024-0.848 1.302-0.924 2.396-2.078 3.288-3.406z"></path>
</symbol>
</defs>
</svg>
