<svg aria-hidden="true" style="position: absolute; width: 0; height: 0; overflow: hidden;" version="1.1" xmlns="http://www.w3.org/2000/svg" xmlns:xlink="http://www.w3.org/1999/xlink">
<defs>
<symbol id="icon-Dashboard" viewBox="0 0 39 32">
<path d="M24.975 14.019s-1.41 8.2-2.906 9.984c-0.775 0.913-1.924 1.489-3.208 1.489-1.047 0-2.004-0.383-2.739-1.016l0.005 0.005c-0.906-0.787-1.476-1.94-1.476-3.227 0-1.049 0.378-2.009 1.006-2.752l-0.005 0.006c1.511-1.78 9.323-4.49 9.323-4.49zM33.895 32.015h-28.917c-0.462-0.001-0.873-0.221-1.134-0.562l-0.003-0.003c-2.408-3.202-3.857-7.245-3.857-11.627 0-10.743 8.709-19.452 19.452-19.452s19.452 8.709 19.452 19.452c0 4.382-1.449 8.425-3.893 11.677l0.036-0.050c-0.263 0.345-0.674 0.566-1.136 0.567h-0zM5.712 29.113h27.45c1.785-2.644 2.849-5.902 2.849-9.409 0-0.023-0-0.047-0-0.070v0.004c0.001-0.059 0.001-0.129 0.001-0.199 0-9.15-7.418-16.568-16.568-16.568s-16.568 7.418-16.568 16.568c0 0.083 0.001 0.166 0.002 0.249l-0-0.013c-0 0.022-0 0.049-0 0.075 0 3.49 1.059 6.733 2.873 9.424l-0.038-0.060zM8.028 19.984c-0.001 0-0.003 0-0.004 0-0.8 0-1.449-0.649-1.449-1.449 0-0 0-0.001 0-0.002v0c-0.001-0.063-0.002-0.137-0.002-0.211 0-7.104 5.759-12.863 12.863-12.863s12.863 5.759 12.863 12.863c0 0.060-0 0.12-0.001 0.18l0-0.009c0 0.795-0.644 1.439-1.439 1.439s-1.439-0.644-1.439-1.439v0c0.001-0.044 0.001-0.096 0.001-0.148 0-5.511-4.468-9.979-9.979-9.979s-9.979 4.468-9.979 9.979c0 0.066 0.001 0.132 0.002 0.198l-0-0.010c0 0.003 0 0.007 0 0.012 0 0.795-0.644 1.439-1.439 1.439-0 0-0 0-0 0v0z"></path>
</symbol>
<symbol id="icon-Settings" viewBox="0 0 32 32">
<path d="M16.349 24.292c-0.004 0-0.008 0-0.013 0-4.297 0-7.781-3.484-7.781-7.781s3.484-7.781 7.781-7.781c4.297 0 7.781 3.484 7.781 7.781v0c-0.001 4.292-3.477 7.772-7.767 7.781h-0.001zM16.349 11.323c-0.003 0-0.006 0-0.009 0-2.865 0-5.188 2.323-5.188 5.188s2.323 5.188 5.188 5.188c2.865 0 5.188-2.323 5.188-5.188v0c0-0.001 0-0.003 0-0.004 0-2.862-2.317-5.183-5.178-5.189h-0.001zM12.898 32.031c-0 0-0.001 0-0.002 0-0.101 0-0.199-0.012-0.293-0.034l0.009 0.002c-2.494-0.581-4.676-1.666-6.526-3.149l0.032 0.025c-0.298-0.24-0.488-0.605-0.488-1.015 0-0.306 0.106-0.588 0.283-0.81l-0.002 0.003 0.508-0.637c-0.882-0.852-1.652-1.811-2.29-2.858l-0.036-0.063-0.738 0.358c-0.165 0.082-0.359 0.13-0.565 0.13-0.51 0-0.95-0.295-1.16-0.723l-0.003-0.008c-1.019-2.052-1.615-4.468-1.615-7.023 0-0.003 0-0.005 0-0.007v0c0-0.002-0-0.005-0-0.008 0-0.714 0.579-1.292 1.292-1.292 0 0 0 0 0 0h0.805c0.124-1.345 0.419-2.583 0.864-3.748l-0.032 0.096-0.736-0.354c-0.439-0.213-0.737-0.655-0.737-1.167 0-0.205 0.048-0.399 0.133-0.571l-0.003 0.008c1.095-2.244 2.604-4.127 4.443-5.619l0.030-0.024c0.22-0.178 0.503-0.286 0.811-0.286 0.408 0 0.771 0.189 1.008 0.484l0.002 0.003 0.509 0.634c0.967-0.648 2.078-1.201 3.259-1.603l0.1-0.030-0.183-0.796c-0.020-0.086-0.032-0.184-0.032-0.285 0-0.613 0.424-1.126 0.994-1.264l0.009-0.002c1.095-0.261 2.353-0.41 3.645-0.41 1.257 0 2.482 0.141 3.658 0.409l-0.11-0.021c0.584 0.132 1.013 0.647 1.013 1.262 0 0.102-0.012 0.202-0.034 0.298l0.002-0.009-0.177 0.798c1.286 0.424 2.402 0.972 3.425 1.648l-0.053-0.033 0.506-0.64c0.209-0.263 0.513-0.441 0.86-0.483l0.006-0.001c0.047-0.006 0.101-0.010 0.157-0.010 0.303 0 0.581 0.107 0.798 0.284l-0.002-0.002c1.881 1.506 3.401 3.379 4.465 5.519l0.043 0.095c0.083 0.166 0.131 0.362 0.131 0.569 0 0.509-0.293 0.95-0.72 1.163l-0.008 0.003-0.735 0.358c0.421 1.070 0.724 2.31 0.851 3.603l0.005 0.058 0.793-0.010c0.006-0 0.013-0 0.019-0 0.714 0 1.292 0.579 1.292 1.292 0 0 0 0 0 0v0c0 0.024 0 0.053 0 0.082 0 2.548-0.59 4.957-1.642 7.1l0.042-0.095c-0.152 0.308-0.412 0.543-0.73 0.657l-0.009 0.003c-0.127 0.046-0.274 0.072-0.426 0.072-0.205 0-0.399-0.048-0.571-0.133l0.008 0.003-0.739-0.357c-0.675 1.112-1.444 2.073-2.322 2.923l-0.004 0.004 0.508 0.637c0.178 0.22 0.286 0.502 0.286 0.81 0 0.409-0.19 0.774-0.487 1.011l-0.003 0.002c-1.815 1.461-3.994 2.55-6.376 3.113l-0.11 0.022c-0.087 0.021-0.187 0.033-0.29 0.033-0.613 0-1.126-0.426-1.259-0.999l-0.002-0.009-0.181-0.792c-0.561 0.082-1.209 0.129-1.867 0.129s-1.306-0.047-1.94-0.137l0.073 0.009-0.178 0.792c-0.081 0.343-0.287 0.627-0.567 0.807l-0.005 0.003c-0.195 0.125-0.433 0.2-0.689 0.2h-0zM8.784 27.605c0.906 0.599 1.948 1.113 3.054 1.489l0.096 0.028 0.152-0.676c0.133-0.583 0.647-1.012 1.261-1.012 0.102 0 0.202 0.012 0.298 0.035l-0.009-0.002c0.772 0.188 1.658 0.296 2.569 0.296s1.797-0.108 2.646-0.312l-0.077 0.016c0.087-0.021 0.187-0.033 0.29-0.033 0.613 0 1.126 0.427 1.259 1l0.002 0.009 0.155 0.676c1.201-0.406 2.242-0.922 3.199-1.554l-0.051 0.032-0.43-0.541c-0.178-0.22-0.286-0.503-0.286-0.811 0-0.408 0.189-0.772 0.485-1.009l0.003-0.002c1.337-1.081 2.416-2.425 3.169-3.959l0.030-0.069c0.213-0.438 0.655-0.734 1.165-0.734 0.205 0 0.399 0.048 0.571 0.133l-0.008-0.003 0.631 0.304c0.384-1.009 0.659-2.18 0.771-3.398l0.004-0.053-0.672 0.009c-0.356-0.019-0.677-0.156-0.927-0.374l0.002 0.002c-0.238-0.235-0.386-0.561-0.388-0.921v-0c-0.003-1.835-0.436-3.569-1.203-5.106l0.030 0.066c-0.083-0.166-0.132-0.362-0.132-0.57 0-0.509 0.294-0.949 0.722-1.16l0.008-0.003 0.627-0.306c-0.642-1.034-1.368-1.929-2.192-2.722l-0.004-0.004-0.43 0.544c-0.239 0.301-0.604 0.492-1.015 0.492-0.305 0-0.585-0.106-0.806-0.282l0.003 0.002c-1.295-1.041-2.853-1.812-4.555-2.204l-0.077-0.015c-0.583-0.133-1.012-0.647-1.012-1.261 0-0.103 0.012-0.202 0.035-0.298l-0.002 0.009 0.15-0.676c-0.51-0.066-1.1-0.104-1.698-0.104-0.631 0-1.253 0.042-1.862 0.124l0.071-0.008 0.158 0.677c0.021 0.087 0.033 0.188 0.033 0.291 0 0.612-0.425 1.124-0.996 1.258l-0.009 0.002c-1.776 0.42-3.328 1.198-4.643 2.258l0.022-0.017c-0.22 0.178-0.502 0.286-0.81 0.286-0.407 0-0.77-0.188-1.007-0.482l-0.002-0.003-0.433-0.537c-0.82 0.801-1.539 1.7-2.139 2.679l-0.034 0.060 0.629 0.302c0.439 0.213 0.736 0.655 0.736 1.166 0 0.205-0.048 0.399-0.133 0.572l0.003-0.008c-0.72 1.458-1.142 3.175-1.142 4.99v0c0 0.002 0 0.004 0 0.007 0 0.719-0.575 1.303-1.291 1.318l-0.001 0h-0.681c0.122 1.259 0.398 2.416 0.812 3.506l-0.031-0.092 0.628-0.305c0.165-0.083 0.36-0.131 0.567-0.131 0.51 0 0.952 0.296 1.161 0.725l0.003 0.008c0.786 1.599 1.867 2.941 3.183 4.002l0.022 0.017c0.298 0.24 0.487 0.605 0.487 1.014 0 0.307-0.106 0.588-0.284 0.81l0.002-0.003z"></path>
</symbol>
<symbol id="icon-Tablet" viewBox="0 0 24 32">
<path d="M18.477 32.007h-13.38c-2.827-0.060-5.095-2.366-5.095-5.201 0-0.033 0-0.065 0.001-0.098l-0 0.005v-21.434c-0.001-0.027-0.001-0.060-0.001-0.092 0-2.836 2.268-5.142 5.090-5.202l0.006-0h13.38c2.827 0.060 5.096 2.366 5.096 5.202 0 0.032-0 0.065-0.001 0.097l0-0.005v21.434c0.001 0.027 0.001 0.060 0.001 0.092 0 2.836-2.269 5.142-5.091 5.202l-0.006 0zM5.097 2.136c-1.681 0.038-3.029 1.409-3.029 3.096 0 0.018 0 0.037 0 0.055l-0-0.003v21.429c-0 0.015-0 0.034-0 0.052 0 1.686 1.348 3.058 3.025 3.096l0.004 0h13.38c1.681-0.037 3.030-1.409 3.030-3.096 0-0.018-0-0.037-0-0.055l0 0.003v-21.434c0-0.014 0-0.031 0-0.048 0-1.687-1.349-3.058-3.026-3.096l-0.003-0h-13.38zM11.787 28.636c-0.012 0-0.026 0.001-0.041 0.001-0.593 0-1.074-0.481-1.074-1.074s0.481-1.074 1.074-1.074c0.593 0 1.074 0.481 1.074 1.074 0 0 0 0 0 0v0c0 0.005 0 0.012 0 0.018 0 0.575-0.46 1.043-1.033 1.055l-0.001 0zM12.82 5.798h-2.066c-0.572-0.026-1.026-0.497-1.026-1.073s0.454-1.047 1.024-1.073l0.002-0h2.066c0.579 0.019 1.041 0.492 1.041 1.074s-0.462 1.055-1.038 1.074l-0.002 0z"></path>
</symbol>
</defs>
</svg>
